# Blender v3.0.1 OBJ File: ''
# www.blender.org
mtllib Teapot.mtl
o Teapot
v 0.658891 2.511100 1.293645
v 0.201185 2.413487 1.441608
v 1.146345 2.390703 0.837629
v 1.293645 2.511100 0.658891
v 1.444449 2.418225 0.000000
v -1.293645 2.511100 0.658891
v -1.444449 2.418225 0.000000
v -1.146345 2.390703 0.837629
v -0.631111 2.430733 1.346329
v -0.631111 2.430733 -1.346329
v 0.201185 2.413487 -1.441608
v -1.146345 2.390703 -0.837629
v -1.293645 2.511100 -0.658891
v 1.293645 2.511100 -0.658891
v 1.146345 2.390703 -0.837629
v 0.658891 2.511100 -1.293645
v -0.540465 1.565338 1.868577
v 1.870111 0.763487 0.916766
v -2.065348 0.797103 0.000000
v -0.540465 1.565338 -1.868577
v -0.383031 0.654525 -1.968039
v -1.870111 0.763487 -0.916766
v 0.916766 0.763487 -1.870111
v 0.916766 0.763487 1.870111
v 0.652446 0.068014 1.306650
v 1.406209 0.613187 1.406208
v 1.275661 0.049829 0.674975
v 1.436872 0.063923 0.000000
v 2.103142 0.826903 0.000000
v -1.403799 0.027414 0.000000
v -1.870111 0.763487 0.916766
v -1.406209 0.613187 1.406208
v -1.191158 0.056265 0.874663
v -0.210457 0.108501 1.477411
v -0.383031 0.654525 1.968039
v -0.210457 0.108501 -1.477411
v -1.191158 0.056265 -0.874663
v -1.406209 0.613187 -1.406208
v 1.275661 0.049829 -0.674975
v 1.870111 0.763487 -0.916766
v 1.406209 0.613187 -1.406208
v 0.652446 0.068014 -1.306650
v -2.796460 2.047359 0.244345
v -2.830486 2.174116 0.000000
v -2.988815 1.540810 0.000000
v -1.549442 2.140463 0.273174
v -1.500000 2.250000 0.000000
v -2.641296 1.962826 0.000000
v -1.600000 2.025000 0.000000
v -2.796460 2.047359 -0.244345
v -1.549442 2.140463 -0.273174
v -1.911825 0.632956 0.149788
v -2.669531 1.238219 0.245510
v -1.929541 0.541720 0.000000
v -1.987148 0.865675 0.153790
v -2.574424 1.348333 0.000000
v -1.987148 0.865675 -0.153790
v -2.669531 1.238219 -0.245510
v -1.911825 0.632956 -0.149788
v 3.205955 2.393307 0.000000
v 2.451960 1.042693 0.311413
v 2.475714 0.942112 0.000000
v 1.709271 0.763542 0.479377
v 1.700000 0.600000 0.000000
v 2.356638 1.398893 0.429439
v 1.700000 1.339200 0.316800
v 2.273804 1.589761 0.000000
v 1.700000 1.425000 0.000000
v 2.356638 1.398893 -0.429439
v 1.700000 1.339200 -0.316800
v 1.709271 0.763542 -0.479377
v 2.451960 1.042693 -0.311413
v 3.135054 2.394931 0.106431
v 2.838138 2.415673 0.118657
v 2.761681 2.432936 0.000000
v 2.838138 2.415673 -0.118657
v 3.135054 2.394931 -0.106431
v 0.122357 2.700812 0.133297
v 0.246450 3.056717 0.306532
v -0.342119 3.133639 0.000000
v 0.151649 2.705785 0.000000
v 0.356620 3.065964 0.000000
v -0.110914 2.691787 0.153675
v -0.151649 2.705785 0.000000
v -0.265175 3.064468 0.284606
v -0.110914 2.691787 -0.153675
v -0.265175 3.064468 -0.284606
v 0.122357 2.700812 -0.133297
v 0.246450 3.056717 -0.306532
v 0.213131 2.388608 1.290241
v 0.786561 2.446913 1.086130
v 1.188274 2.423627 0.614564
v 1.323898 2.430839 0.000000
v -1.188274 2.423627 0.614564
v -1.323898 2.430839 0.000000
v -0.614150 2.437236 1.200471
v -0.614150 2.437236 -1.200471
v 0.213131 2.388608 -1.290241
v -1.188274 2.423627 -0.614564
v 1.188274 2.423627 -0.614564
v 0.786561 2.446913 -1.086130
vn -0.6954 -0.1816 -0.6954
vn 0.6986 -0.1753 -0.6937
vn 0.6986 -0.1753 0.6937
vn -0.6954 -0.1816 0.6954
vn 0.1818 0.3321 0.9256
vn 0.6700 0.3199 0.6700
vn 0.9068 0.3366 0.2538
vn -0.9193 0.3340 0.2080
vn -0.6715 0.3201 0.6683
vn -0.4817 0.0124 0.8763
vn -0.4817 0.0124 -0.8763
vn -0.6728 0.3293 -0.6625
vn -0.9193 0.3340 -0.2080
vn 0.9068 0.3366 -0.2538
vn 0.6700 0.3199 -0.6700
vn 0.1818 0.3321 -0.9256
vn 0.1110 -0.6446 0.7564
vn 0.4697 -0.7379 0.4846
vn 0.7430 -0.6489 0.1639
vn -0.7428 -0.6384 0.2016
vn -0.3550 -0.6844 0.6368
vn -0.3550 -0.6844 -0.6368
vn -0.7428 -0.6384 -0.2016
vn 0.7430 -0.6489 -0.1639
vn 0.4697 -0.7379 -0.4846
vn 0.1110 -0.6446 -0.7564
vn -0.9387 0.2347 0.2525
vn -0.0766 0.8807 0.4675
vn 0.0557 -0.9321 0.3578
vn 0.0557 -0.9321 -0.3578
vn -0.9387 0.2347 -0.2525
vn -0.0766 0.8807 -0.4675
vn -0.6861 -0.7275 -0.0043
vn 0.1501 0.0316 0.9882
vn 0.3525 0.7749 -0.5247
vn 0.9000 0.1418 0.4122
vn 0.3525 0.7749 0.5247
vn 0.9000 0.1418 -0.4122
vn 0.1501 0.0316 -0.9882
vn -0.6861 -0.7275 0.0043
vn 0.7653 -0.3851 0.5157
vn 0.3951 -0.8649 0.3095
vn 0.2956 -0.2283 0.9276
vn -0.7321 0.4236 0.5334
vn -0.2488 0.8664 0.4330
vn -0.7321 0.4236 -0.5334
vn -0.2488 0.8664 -0.4330
vn 0.2956 -0.2283 -0.9276
vn 0.7653 -0.3851 -0.5157
vn 0.3951 -0.8649 -0.3095
vn 0.0047 0.9720 0.2350
vn 0.8330 -0.4741 0.2851
vn 0.0962 0.9933 0.0645
vn -0.9037 -0.4023 0.1465
vn -0.0452 -0.4244 0.9043
vn -0.0452 -0.4244 -0.9043
vn -0.9037 -0.4023 -0.1465
vn 0.8330 -0.4741 -0.2851
vn 0.0962 0.9933 -0.0645
vn 0.0047 0.9720 -0.2350
vn 0.2253 0.9724 0.0611
vn -0.2171 0.9743 0.0594
vn -0.1774 0.9725 0.1512
vn -0.1774 0.9725 -0.1512
vn -0.2171 0.9743 -0.0594
vn 0.2253 0.9724 -0.0611
vn 0.1983 0.9726 -0.1209
vn 0.0128 -0.9998 0.0178
vn -0.0223 -0.9922 -0.1223
vn 0.0001 -0.9995 -0.0330
vn -0.0223 -0.9922 0.1223
vn 0.0001 -0.9995 0.0330
vn 0.0128 -0.9998 -0.0178
vn -0.3426 0.7509 -0.5645
vn -0.7799 0.5699 -0.2588
vn 0.7799 0.5699 -0.2588
vn 0.7799 0.5699 0.2588
vn -0.7799 0.5699 0.2588
vn -0.3426 0.7509 0.5645
vn 0.0646 0.1194 0.9907
vn 0.2481 0.2537 0.9349
vn 0.7021 0.1193 0.7021
vn 0.9127 0.3778 0.1556
vn -0.9216 0.3530 0.1612
vn -0.6604 0.2580 0.7052
vn -0.6578 0.3375 0.6734
vn -0.0876 0.5080 0.8569
vn -0.0876 0.5080 -0.8569
vn -0.6604 0.2580 -0.7052
vn -0.6636 0.3188 -0.6768
vn -0.9216 0.3530 -0.1612
vn 0.9127 0.3778 -0.1556
vn 0.7021 0.1193 -0.7021
vn 0.0646 0.1194 -0.9907
vn 0.2481 0.2537 -0.9349
vn 0.1177 -0.6518 0.7492
vn 0.3967 -0.6642 0.6337
vn 0.6343 -0.6630 0.3976
vn 0.7365 -0.6614 0.1415
vn -0.7118 -0.6909 0.1263
vn -0.6445 -0.6433 0.4133
vn -0.3135 -0.7162 0.6236
vn -0.3135 -0.7162 -0.6236
vn -0.6445 -0.6433 -0.4133
vn -0.7118 -0.6909 -0.1263
vn 0.7365 -0.6614 -0.1415
vn 0.6343 -0.6630 -0.3976
vn 0.3967 -0.6642 -0.6337
vn 0.1177 -0.6518 -0.7492
vn -0.0531 0.9301 0.3634
vn 0.0602 -0.9234 0.3792
vn 0.0602 -0.9234 -0.3792
vn -0.0531 0.9301 -0.3634
vn -0.5046 -0.7095 0.4919
vn -0.6660 -0.1034 0.7387
vn 0.6330 0.5846 0.5074
vn 0.8548 0.0930 0.5106
vn 0.6330 0.5846 -0.5074
vn 0.8548 0.0930 -0.5106
vn -0.5046 -0.7095 -0.4919
vn -0.6660 -0.1034 -0.7387
vn 0.8861 -0.4170 0.2023
vn 0.3860 -0.8753 0.2912
vn 0.5249 -0.1378 0.8399
vn 0.0582 0.2665 0.9621
vn -0.1863 0.2642 0.9463
vn -0.7912 0.4875 0.3693
vn -0.1314 0.9569 0.2591
vn -0.7912 0.4875 -0.3693
vn -0.1314 0.9569 -0.2591
vn -0.1863 0.2642 -0.9463
vn 0.0582 0.2665 -0.9621
vn 0.5249 -0.1378 -0.8399
vn 0.8861 -0.4170 -0.2023
vn 0.3860 -0.8753 -0.2912
vn 0.8975 -0.4016 0.1822
vn -0.8805 -0.4326 0.1940
vn 0.0945 -0.2949 0.9508
vn 0.0945 -0.2949 -0.9508
vn -0.8805 -0.4326 -0.1940
vn 0.8975 -0.4016 -0.1822
vn 0.0201 0.9450 0.3265
vn 0.0136 0.9685 0.2486
vn 0.1983 0.9726 0.1209
vn 0.2275 0.9700 0.0862
vn -0.2258 0.9629 0.1476
vn -0.0177 0.9735 0.2282
vn -0.0177 0.9735 -0.2282
vn -0.2258 0.9629 -0.1476
vn 0.2275 0.9700 -0.0862
vn 0.0201 0.9450 -0.3265
vn 0.0136 0.9685 -0.2486
vn -0.0003 -0.9996 -0.0285
vn -0.0003 -0.9996 0.0285
s 0
usemtl Material.Teapot
f 3//1 1//1 4//1
f 8//2 6//2 9//2
f 12//3 10//3 13//3
f 15//4 14//4 16//4
f 1//5 17//5 24//5
f 18//6 1//6 24//6
f 29//7 4//7 18//7
f 6//8 19//8 31//8
f 17//9 6//9 31//9
f 35//10 17//10 32//10
f 20//11 21//11 38//11
f 22//12 10//12 20//12
f 19//13 13//13 22//13
f 14//14 29//14 40//14
f 23//15 14//15 40//15
f 20//16 16//16 23//16
f 24//17 35//17 34//17
f 27//18 26//18 25//18
f 29//19 27//19 28//19
f 33//20 19//20 30//20
f 35//21 33//21 34//21
f 37//22 21//22 36//22
f 19//23 37//23 30//23
f 39//24 29//24 28//24
f 42//25 41//25 39//25
f 21//26 23//26 36//26
f 43//27 44//27 45//27
f 46//28 44//28 43//28
f 49//29 43//29 48//29
f 50//30 49//30 48//30
f 44//31 50//31 45//31
f 44//32 51//32 50//32
f 53//33 45//33 54//33
f 55//34 53//34 52//34
f 19//35 53//35 55//35
f 56//36 43//36 53//36
f 58//37 19//37 57//37
f 50//38 56//38 58//38
f 58//39 57//39 59//39
f 45//40 58//40 54//40
f 73//41 62//41 60//41
f 63//42 62//42 61//42
f 63//43 61//43 65//43
f 67//44 74//44 75//44
f 68//45 65//45 67//45
f 76//46 67//46 75//46
f 69//47 68//47 67//47
f 72//48 71//48 69//48
f 62//49 77//49 60//49
f 62//50 71//50 72//50
f 79//51 80//51 85//51
f 82//52 79//52 81//52
f 82//53 80//53 79//53
f 85//54 80//54 84//54
f 79//55 85//55 78//55
f 87//56 89//56 88//56
f 80//57 87//57 84//57
f 89//58 82//58 81//58
f 89//59 80//59 82//59
f 87//60 80//60 89//60
f 93//61 78//61 92//61
f 83//62 95//62 94//62
f 96//63 83//63 94//63
f 99//64 86//64 97//64
f 95//65 86//65 99//65
f 88//66 93//66 100//66
f 101//67 88//67 100//67
f 28//68 30//68 39//68
f 42//69 37//69 36//69
f 39//70 30//70 37//70
f 33//71 25//71 34//71
f 33//72 30//72 27//72
f 27//73 30//73 28//73
f 1//74 3//74 2//74
f 5//75 3//75 4//75
f 6//76 8//76 7//76
f 7//77 12//77 13//77
f 14//78 15//78 5//78
f 11//79 15//79 16//79
f 24//80 17//80 35//80
f 1//81 2//81 17//81
f 18//82 24//82 26//82
f 18//6 4//6 1//6
f 29//83 5//83 4//83
f 6//84 7//84 19//84
f 17//85 31//85 32//85
f 17//86 9//86 6//86
f 17//87 2//87 9//87
f 10//88 11//88 20//88
f 22//89 20//89 38//89
f 22//90 13//90 10//90
f 19//91 7//91 13//91
f 14//92 5//92 29//92
f 23//93 40//93 41//93
f 23//15 16//15 14//15
f 21//94 20//94 23//94
f 20//95 11//95 16//95
f 25//96 24//96 34//96
f 25//97 26//97 24//97
f 18//98 26//98 27//98
f 29//99 18//99 27//99
f 33//100 31//100 19//100
f 33//101 32//101 31//101
f 35//102 32//102 33//102
f 37//103 38//103 21//103
f 22//104 38//104 37//104
f 19//105 22//105 37//105
f 39//106 40//106 29//106
f 39//107 41//107 40//107
f 23//108 41//108 42//108
f 36//109 23//109 42//109
f 46//110 47//110 44//110
f 49//111 46//111 43//111
f 50//112 51//112 49//112
f 44//113 47//113 51//113
f 52//114 53//114 54//114
f 53//115 43//115 45//115
f 19//116 56//116 53//116
f 56//117 48//117 43//117
f 58//118 56//118 19//118
f 50//119 48//119 56//119
f 54//120 58//120 59//120
f 45//121 50//121 58//121
f 73//122 61//122 62//122
f 63//123 64//123 62//123
f 73//124 65//124 61//124
f 74//125 65//125 73//125
f 66//126 63//126 65//126
f 67//127 65//127 74//127
f 68//128 66//128 65//128
f 76//129 69//129 67//129
f 69//130 70//130 68//130
f 69//131 71//131 70//131
f 77//132 69//132 76//132
f 72//133 69//133 77//133
f 62//134 72//134 77//134
f 62//135 64//135 71//135
f 81//136 79//136 78//136
f 83//137 85//137 84//137
f 78//138 85//138 83//138
f 86//139 87//139 88//139
f 84//140 87//140 86//140
f 88//141 89//141 81//141
f 91//142 96//142 90//142
f 91//143 78//143 96//143
f 92//144 78//144 91//144
f 93//145 81//145 78//145
f 83//146 84//146 95//146
f 96//147 78//147 83//147
f 86//148 88//148 97//148
f 95//149 84//149 86//149
f 88//150 81//150 93//150
f 98//151 97//151 101//151
f 97//152 88//152 101//152
f 42//153 39//153 37//153
f 33//154 27//154 25//154
